<svg width="1440" height="699" viewBox="0 0 1440 699" fill="none" xmlns="http://www.w3.org/2000/svg">
<g clip-path="url(#clip0_12_97)">
<path opacity="0.0144928" d="M1870.09 684.67L1830.89 82.44C1827.68 33.119 1776.32 2.086 1731.17 22.189L1349.04 192.321C1303.89 212.424 1292.58 271.361 1327.09 306.749L1748.4 738.84C1794.44 786.06 1874.37 750.47 1870.09 684.67Z" stroke="url(#paint0_linear_12_97)" stroke-opacity="0.2" stroke-width="4"/>
<path opacity="0.0289855" d="M1830.45 697.49L1823.57 101.133C1822.99 51.6779 1773.3 17.9439 1727.13 35.6689L1340.08 184.24C1293.91 201.964 1279.55 260.286 1312.22 297.42L1706.15 745.21C1749.65 794.67 1831.21 763.36 1830.45 697.49Z" stroke="url(#paint1_linear_12_97)" stroke-opacity="0.2" stroke-width="4"/>
<path opacity="0.0434783" d="M1790.69 709.27L1815.39 120.478C1817.46 71.0301 1769.58 34.6841 1722.51 49.9781L1331.76 176.943C1284.69 192.237 1267.31 249.786 1298.05 288.571L1664.12 750.4C1704.98 801.96 1787.94 775 1790.69 709.27Z" stroke="url(#paint2_linear_12_97)" stroke-opacity="0.2" stroke-width="4"/>
<path opacity="0.057971" d="M1750.88 720L1806.34 140.422C1811.06 91.1219 1765.12 52.26 1717.29 65.078L1324.01 170.457C1276.17 183.275 1255.82 239.897 1284.56 280.233L1622.38 754.43C1660.51 807.95 1744.62 785.41 1750.88 720Z" stroke="url(#paint3_linear_12_97)" stroke-opacity="0.2" stroke-width="4"/>
<path opacity="0.0724638" d="M1711.06 729.69L1796.39 160.91C1803.74 111.898 1759.89 70.624 1711.41 80.928L1316.8 164.806C1268.32 175.11 1245.05 230.652 1271.7 272.436L1580.99 757.34C1616.28 812.67 1701.33 794.59 1711.06 729.69Z" stroke="url(#paint4_linear_12_97)" stroke-opacity="0.2" stroke-width="4"/>
<path opacity="0.0869565" d="M1671.3 738.35L1785.51 181.885C1795.48 133.302 1753.83 89.7261 1704.85 97.4851L1310.07 160.012C1261.08 167.771 1234.94 222.083 1259.44 265.206L1540.01 759.15C1572.39 816.15 1658.12 802.57 1671.3 738.35Z" stroke="url(#paint5_linear_12_97)" stroke-opacity="0.2" stroke-width="4"/>
<path opacity="0.101449" d="M1631.64 746.01L1773.68 203.29C1786.25 155.277 1746.93 109.515 1697.57 114.703L1303.77 156.094C1254.41 161.282 1225.47 214.217 1247.74 258.569L1499.51 759.9C1528.89 818.41 1615.07 809.35 1631.64 746.01Z" stroke="url(#paint6_linear_12_97)" stroke-opacity="0.2" stroke-width="4"/>
<path opacity="0.115942" d="M1592.15 752.68L1760.89 225.067C1776.02 177.761 1739.15 129.938 1689.55 132.537L1297.85 153.065C1248.25 155.665 1216.58 207.08 1236.57 252.546L1459.53 759.63C1485.85 819.49 1572.23 814.96 1592.15 752.68Z" stroke="url(#paint7_linear_12_97)" stroke-opacity="0.2" stroke-width="4"/>
<path opacity="0.130435" d="M1552.87 758.38L1747.12 247.158C1764.77 200.695 1730.45 150.94 1680.75 150.94H1292.25C1242.55 150.94 1208.23 200.695 1225.88 247.158L1420.13 758.38C1443.32 819.43 1529.68 819.43 1552.87 758.38Z" stroke="url(#paint8_linear_12_97)" stroke-opacity="0.2" stroke-width="4"/>
<path opacity="0.144928" d="M1513.85 763.14L1732.36 269.504C1752.49 224.019 1720.83 172.466 1671.15 169.862L1286.93 149.726C1237.26 147.123 1200.37 195.084 1215.64 242.424L1381.36 756.2C1401.37 818.26 1487.46 822.77 1513.85 763.14Z" stroke="url(#paint9_linear_12_97)" stroke-opacity="0.2" stroke-width="4"/>
<path opacity="0.15942" d="M1475.14 766.99L1716.61 292.045C1739.17 247.671 1710.25 194.46 1660.74 189.256L1281.83 149.431C1232.32 144.228 1192.97 190.263 1205.81 238.358L1343.26 753.12C1360.06 816.04 1445.63 825.04 1475.14 766.99Z" stroke="url(#paint10_linear_12_97)" stroke-opacity="0.2" stroke-width="4"/>
<path opacity="0.173913" d="M1436.79 769.94L1699.86 314.722C1724.79 271.587 1698.7 216.864 1649.49 209.07L1276.9 150.057C1227.69 142.264 1185.97 186.247 1196.35 234.973L1305.87 749.2C1319.42 812.81 1404.25 826.25 1436.79 769.94Z" stroke="url(#paint11_linear_12_97)" stroke-opacity="0.2" stroke-width="4"/>
<path opacity="0.188406" d="M1398.83 772.04L1682.11 337.476C1709.34 295.708 1686.16 239.621 1637.39 229.255L1272.08 151.605C1223.31 141.239 1179.33 183.051 1187.21 232.282L1269.25 744.49C1279.52 808.62 1363.37 826.44 1398.83 772.04Z" stroke="url(#paint12_linear_12_97)" stroke-opacity="0.2" stroke-width="4"/>
<path opacity="0.202899" d="M1361.32 773.31L1663.37 360.248C1692.82 319.969 1672.63 262.674 1624.43 249.759L1267.33 154.072C1219.13 141.157 1173 180.682 1178.36 230.292L1233.42 739.04C1240.39 803.51 1323.04 825.66 1361.32 773.31Z" stroke="url(#paint13_linear_12_97)" stroke-opacity="0.2" stroke-width="4"/>
<path opacity="0.217391" d="M1324.28 773.8L1643.64 382.982C1675.24 344.311 1658.1 285.963 1610.6 270.531L1262.59 157.454C1215.09 142.021 1166.93 179.149 1169.76 229.009L1198.41 732.9C1202.09 797.55 1283.3 823.94 1324.28 773.8Z" stroke="url(#paint14_linear_12_97)" stroke-opacity="0.2" stroke-width="4"/>
<path opacity="0.231884" d="M1287.75 773.53L1622.94 405.619C1656.6 368.67 1642.56 309.432 1595.9 291.519L1257.81 161.74C1211.14 143.827 1161.07 178.456 1161.36 228.438L1164.27 726.13C1164.65 790.79 1244.21 821.33 1287.75 773.53Z" stroke="url(#paint15_linear_12_97)" stroke-opacity="0.2" stroke-width="4"/>
<path opacity="0.246377" d="M1251.78 772.56L1601.27 428.104C1636.9 392.988 1626.01 333.022 1580.31 312.674L1252.94 166.92C1207.24 146.572 1155.39 178.605 1153.13 228.581L1131.01 718.79C1128.1 783.28 1205.8 817.87 1251.78 772.56Z" stroke="url(#paint16_linear_12_97)" stroke-opacity="0.2" stroke-width="4"/>
<path opacity="0.26087" d="M1216.38 770.91L1578.66 450.381C1616.16 417.203 1608.46 356.675 1563.84 333.944L1247.94 172.98C1203.32 150.249 1149.83 179.596 1145.03 229.436L1098.66 710.93C1092.48 775.09 1168.11 813.62 1216.38 770.91Z" stroke="url(#paint17_linear_12_97)" stroke-opacity="0.2" stroke-width="4"/>
<path opacity="0.275362" d="M1181.59 768.62L1555.12 472.396C1594.39 441.256 1589.9 380.335 1546.5 355.278L1242.75 179.905C1199.35 154.847 1144.35 181.425 1137.01 231.001L1067.24 702.6C1057.82 766.26 1131.17 808.61 1181.59 768.62Z" stroke="url(#paint18_linear_12_97)" stroke-opacity="0.2" stroke-width="4"/>
<path opacity="0.289855" d="M1147.43 765.75L1530.68 494.097C1571.6 465.091 1570.36 403.947 1528.29 376.627L1237.33 187.673C1195.26 160.354 1138.9 184.088 1129.04 233.271L1036.76 693.88C1024.13 756.88 1095.01 802.91 1147.43 765.75Z" stroke="url(#paint19_linear_12_97)" stroke-opacity="0.2" stroke-width="4"/>
<path opacity="0.304348" d="M1113.93 762.33L1505.36 515.436C1547.83 488.651 1549.84 427.454 1509.22 397.943L1231.63 196.266C1191.02 166.755 1133.43 187.575 1121.08 236.24L1007.23 684.81C991.451 746.99 1059.67 796.55 1113.93 762.33Z" stroke="url(#paint20_linear_12_97)" stroke-opacity="0.2" stroke-width="4"/>
<path opacity="0.318841" d="M1081.1 758.41L1479.2 536.361C1523.09 511.881 1528.35 450.803 1489.29 419.177L1225.62 205.658C1186.56 174.032 1127.92 191.878 1113.1 239.898L978.67 675.464C959.786 736.65 1025.17 789.6 1081.1 758.41Z" stroke="url(#paint21_linear_12_97)" stroke-opacity="0.2" stroke-width="4"/>
<path opacity="0.333333" d="M1048.96 754.03L1452.22 556.827C1497.41 534.729 1505.92 473.942 1468.53 440.282L1219.25 215.825C1181.87 182.165 1122.3 196.983 1105.05 244.235L951.08 665.891C929.154 725.94 991.537 782.11 1048.96 754.03Z" stroke="url(#paint22_linear_12_97)" stroke-opacity="0.2" stroke-width="4"/>
<path opacity="0.347826" d="M1017.54 749.23L1424.45 576.79C1470.81 557.143 1482.56 496.818 1446.95 461.213L1212.48 226.736C1176.87 191.131 1116.55 202.876 1096.9 249.238L924.461 656.154C899.562 714.91 958.782 774.13 1017.54 749.23Z" stroke="url(#paint23_linear_12_97)" stroke-opacity="0.2" stroke-width="4"/>
<path opacity="0.362319" d="M986.827 744.06L1395.94 596.207C1443.35 579.076 1458.3 519.383 1424.57 481.926L1205.27 238.363C1171.54 200.906 1110.61 209.539 1088.62 254.892L898.81 646.31C871.017 703.62 926.922 765.71 986.827 744.06Z" stroke="url(#paint24_linear_12_97)" stroke-opacity="0.2" stroke-width="4"/>
<path opacity="0.376812" d="M956.848 738.57L1366.72 615.039C1415.03 600.479 1433.17 541.589 1401.41 502.377L1197.59 250.674C1165.84 211.463 1104.46 216.955 1080.18 261.182L874.125 636.417C843.522 692.15 895.972 756.92 956.848 738.57Z" stroke="url(#paint25_linear_12_97)" stroke-opacity="0.2" stroke-width="4"/>
<path opacity="0.391304" d="M927.603 732.8L1336.84 633.248C1385.92 621.309 1407.19 563.389 1377.5 522.527L1189.4 263.635C1159.71 222.773 1098.06 225.102 1071.54 268.089L850.395 626.532C817.074 680.541 865.941 747.8 927.603 732.8Z" stroke="url(#paint26_linear_12_97)" stroke-opacity="0.2" stroke-width="4"/>
<path opacity="0.405797" d="M899.098 726.79L1306.33 650.799C1356.04 641.524 1380.39 584.741 1352.85 542.335L1180.68 277.211C1153.14 234.806 1091.36 233.959 1062.67 275.594L827.61 616.711C791.67 668.866 836.834 738.41 899.098 726.79Z" stroke="url(#paint27_linear_12_97)" stroke-opacity="0.2" stroke-width="4"/>
<path opacity="0.42029" d="M871.332 720.59L1275.24 667.662C1325.43 661.085 1352.81 605.601 1327.51 561.764L1171.39 291.365C1146.08 247.529 1084.34 243.5 1053.55 283.677L805.752 607.008C767.3 657.182 808.654 728.81 871.332 720.59Z" stroke="url(#paint28_linear_12_97)" stroke-opacity="0.2" stroke-width="4"/>
<path opacity="0.434783" d="M844.305 714.25L1243.62 683.81C1294.15 679.955 1324.49 625.93 1301.49 580.779L1161.51 306.06C1138.5 260.908 1076.96 253.701 1044.15 292.315L784.806 597.476C743.952 645.547 781.401 719.04 844.305 714.25Z" stroke="url(#paint29_linear_12_97)" stroke-opacity="0.2" stroke-width="4"/>
<path opacity="0.449275" d="M818.013 707.8L1211.51 699.21C1262.23 698.1 1295.46 645.692 1274.83 599.345L1151.01 321.255C1130.38 274.908 1069.2 264.533 1034.44 301.485L764.75 588.165C721.613 634.02 755.072 709.17 818.013 707.8Z" stroke="url(#paint30_linear_12_97)" stroke-opacity="0.2" stroke-width="4"/>
<path opacity="0.463768" d="M792.45 701.28L1178.97 713.84C1229.73 715.49 1265.76 664.852 1247.56 617.433L1139.88 336.911C1121.67 289.492 1061.02 275.968 1024.4 311.163L745.559 579.126C700.261 622.658 729.659 699.24 792.45 701.28Z" stroke="url(#paint31_linear_12_97)" stroke-opacity="0.2" stroke-width="4"/>
<path opacity="0.478261" d="M767.607 694.74L1146.04 727.69C1196.7 732.1 1235.43 683.377 1219.72 635.013L1128.08 352.987C1112.37 304.623 1052.39 287.977 1014 321.322L727.207 570.407C679.878 611.514 705.155 689.31 767.607 694.74Z" stroke="url(#paint32_linear_12_97)" stroke-opacity="0.2" stroke-width="4"/>
<path opacity="0.492754" d="M743.474 688.22L1112.77 740.73C1163.18 747.89 1204.52 701.24 1191.34 652.058L1115.61 369.44C1102.44 320.26 1043.3 300.527 1003.23 331.938L709.666 562.053C660.438 600.641 681.547 679.421 743.474 688.22Z" stroke="url(#paint33_linear_12_97)" stroke-opacity="0.2" stroke-width="4"/>
<path opacity="0.507246" d="M720.037 681.762L1079.21 752.95C1129.22 762.86 1173.06 718.41 1162.47 668.545L1102.46 386.229C1091.86 336.365 1033.72 313.588 992.071 342.982L692.903 554.107C641.913 590.091 658.82 669.628 720.037 681.762Z" stroke="url(#paint34_linear_12_97)" stroke-opacity="0.2" stroke-width="4"/>
<path opacity="0.521739" d="M697.282 675.392L1045.43 764.35C1094.88 776.98 1141.11 734.87 1133.13 684.45L1088.6 403.311C1080.62 352.896 1023.63 327.126 980.501 354.426L676.885 546.61C624.275 579.911 636.957 659.978 697.282 675.392Z" stroke="url(#paint35_linear_12_97)" stroke-opacity="0.2" stroke-width="4"/>
<path opacity="0.536232" d="M675.192 669.151L1011.46 774.91C1060.21 790.24 1108.71 750.59 1103.37 699.76L1074.03 420.642C1068.69 369.812 1013.01 341.107 968.506 366.243L661.576 539.601C607.491 570.149 615.938 650.516 675.192 669.151Z" stroke="url(#paint36_linear_12_97)" stroke-opacity="0.2" stroke-width="4"/>
<path opacity="0.550725" d="M653.748 663.074L977.363 784.63C1025.27 802.62 1075.91 765.55 1073.23 714.44L1058.75 438.179C1056.07 387.071 1001.84 355.498 956.073 378.403L646.937 533.115C591.525 560.847 595.74 641.286 653.748 663.074Z" stroke="url(#paint37_linear_12_97)" stroke-opacity="0.2" stroke-width="4"/>
<path opacity="0.565217" d="M632.929 657.193L943.192 793.5C990.112 814.12 1042.75 779.75 1042.75 728.5V455.88C1042.75 404.631 990.112 370.263 943.192 390.876L632.929 527.186C576.341 552.048 576.341 632.331 632.929 657.193Z" stroke="url(#paint38_linear_12_97)" stroke-opacity="0.2" stroke-width="4"/>
<path opacity="0.57971" d="M612.715 651.539L908.997 801.54C954.784 824.72 1009.28 793.16 1011.97 741.91L1026.03 473.7C1028.71 422.449 977.81 385.366 929.851 403.634L619.512 521.845C561.899 543.79 557.712 623.692 612.715 651.539Z" stroke="url(#paint39_linear_12_97)" stroke-opacity="0.2" stroke-width="4"/>
<path opacity="0.594203" d="M593.081 646.141L874.831 808.75C919.345 834.44 975.56 805.79 980.932 754.67L1008.58 491.597C1013.95 440.484 964.925 400.773 916.043 416.647L606.642 517.119C548.159 536.11 539.825 615.406 593.081 646.141Z" stroke="url(#paint40_linear_12_97)" stroke-opacity="0.2" stroke-width="4"/>
<path opacity="0.608696" d="M574.002 641.028L840.745 815.13C883.847 843.26 941.626 817.61 949.677 766.78L990.421 509.529C998.473 458.692 951.447 416.448 901.762 429.884L594.275 513.033C535.078 529.04 522.65 607.511 574.002 641.028Z" stroke="url(#paint41_linear_12_97)" stroke-opacity="0.2" stroke-width="4"/>
<path opacity="0.623188" d="M555.454 636.223L806.79 820.69C848.346 851.19 907.531 828.64 918.248 778.21L971.549 527.454C982.266 477.033 937.373 432.355 887.003 443.316L582.366 509.608C522.612 522.612 506.154 600.039 555.454 636.223Z" stroke="url(#paint42_linear_12_97)" stroke-opacity="0.2" stroke-width="4"/>
<path opacity="0.637681" d="M537.408 631.75L773.014 825.46C812.894 858.24 873.323 838.86 886.686 788.99L951.974 545.331C965.336 495.462 922.696 448.458 871.765 456.913L570.871 506.864C510.715 516.851 490.305 593.024 537.408 631.75Z" stroke="url(#paint43_linear_12_97)" stroke-opacity="0.2" stroke-width="4"/>
<path opacity="0.652174" d="M519.837 627.631L739.468 829.44C777.544 864.43 839.052 848.28 855.031 799.1L931.706 563.119C947.685 513.94 907.416 464.722 856.047 470.646L559.742 504.817C499.342 511.783 475.067 586.493 519.837 627.631Z" stroke="url(#paint44_linear_12_97)" stroke-opacity="0.2" stroke-width="4"/>
<path opacity="0.666667" d="M502.712 623.885L706.196 832.66C742.347 869.75 804.764 856.9 823.325 808.55L910.758 580.78C929.319 532.426 891.532 481.112 839.848 484.487L548.931 503.48C488.443 507.429 460.403 580.476 502.712 623.885Z" stroke="url(#paint45_linear_12_97)" stroke-opacity="0.2" stroke-width="4"/>
<path opacity="0.681159" d="M486.005 620.53L673.247 835.14C707.354 874.24 770.507 864.74 791.609 817.34L889.145 598.275C910.247 550.88 875.046 497.594 823.172 498.405L538.394 502.862C477.972 503.807 446.277 574.995 486.005 620.53Z" stroke="url(#paint46_linear_12_97)" stroke-opacity="0.2" stroke-width="4"/>
<path opacity="0.695652" d="M469.685 617.58L640.663 836.91C672.614 877.9 736.327 871.8 759.921 825.49L866.884 615.567C890.478 569.262 857.963 514.131 806.024 512.374L528.082 502.97C467.879 500.933 432.65 570.073 469.685 617.58Z" stroke="url(#paint47_linear_12_97)" stroke-opacity="0.2" stroke-width="4"/>
<path opacity="0.710145" d="M453.721 615.05L608.487 838C638.175 880.76 702.269 878.1 728.299 833.01L843.994 632.62C870.024 587.534 840.288 530.693 788.407 526.366L517.947 503.808C458.115 498.818 419.483 565.729 453.721 615.05Z" stroke="url(#paint48_linear_12_97)" stroke-opacity="0.2" stroke-width="4"/>
<path opacity="0.724638" d="M438.084 612.95L576.76 838.43C604.082 882.85 668.377 883.64 696.783 839.9L820.495 649.401C848.901 605.66 822.029 547.245 770.331 540.354L507.943 505.378C448.63 497.471 406.737 561.981 438.084 612.95Z" stroke="url(#paint49_linear_12_97)" stroke-opacity="0.2" stroke-width="4"/>
<path opacity="0.73913" d="M422.744 611.291L545.519 838.24C570.382 884.2 634.694 888.46 665.407 846.19L796.411 665.876C827.124 623.603 803.194 563.756 751.803 554.312L498.024 507.676C439.377 496.899 394.371 558.844 422.744 611.291Z" stroke="url(#paint50_linear_12_97)" stroke-opacity="0.2" stroke-width="4"/>
<path opacity="0.753623" d="M407.669 610.077L514.802 837.46C537.115 884.82 601.262 892.57 634.208 851.88L771.765 682.014C804.711 641.329 783.796 580.195 732.833 568.216L488.144 510.7C430.304 497.104 382.345 556.328 407.669 610.077Z" stroke="url(#paint51_linear_12_97)" stroke-opacity="0.2" stroke-width="4"/>
<path opacity="0.768116" d="M392.83 609.316L484.642 836.14C504.324 884.76 568.12 895.99 603.219 857.01L746.583 697.78C781.682 658.803 763.847 596.531 713.434 582.04L478.257 514.439C421.364 498.086 370.619 554.444 392.83 609.316Z" stroke="url(#paint52_linear_12_97)" stroke-opacity="0.2" stroke-width="4"/>
<path opacity="0.782609" d="M378.196 609.01L455.072 834.31C472.045 884.05 535.306 898.75 572.472 861.58L720.892 713.16C758.058 675.996 743.361 612.735 693.616 595.761L468.32 518.886C412.509 499.841 359.152 553.198 378.196 609.01Z" stroke="url(#paint53_linear_12_97)" stroke-opacity="0.2" stroke-width="4"/>
<path opacity="0.797101" d="M363.738 609.161L426.119 832.01C440.317 882.73 502.858 900.87 541.999 865.63L694.722 728.12C733.864 692.88 722.353 628.78 673.395 609.358L458.291 524.025C403.69 502.365 347.904 552.596 363.738 609.161Z" stroke="url(#paint54_linear_12_97)" stroke-opacity="0.2" stroke-width="4"/>
<path opacity="0.811594" d="M349.426 609.769L397.81 829.28C409.171 880.83 470.808 902.4 511.827 869.18L668.102 742.63C709.122 709.41 700.841 644.64 652.784 622.81L448.126 529.843C394.862 505.648 336.833 552.638 349.426 609.769Z" stroke="url(#paint55_linear_12_97)" stroke-opacity="0.2" stroke-width="4"/>
<path opacity="0.826087" d="M335.232 610.83L370.17 826.18C378.641 878.4 439.19 903.34 481.986 872.25L641.063 756.68C683.859 725.58 678.844 660.288 631.801 636.095L437.786 536.32C385.979 509.677 325.903 553.326 335.232 610.83Z" stroke="url(#paint56_linear_12_97)" stroke-opacity="0.2" stroke-width="4"/>
<path opacity="0.84058" d="M321.129 612.343L343.219 822.75C348.755 875.47 408.034 903.75 452.5 874.88L613.637 770.23C658.103 741.36 656.38 675.701 610.461 649.196L427.234 543.437C376.997 514.441 315.072 554.655 321.129 612.343Z" stroke="url(#paint57_linear_12_97)" stroke-opacity="0.2" stroke-width="4"/>
<path opacity="0.855072" d="M307.089 614.3L316.975 819.02C319.538 872.1 377.369 903.66 423.392 877.09L585.857 783.29C631.881 756.71 633.47 690.86 588.782 662.094L416.43 551.171C367.873 519.92 304.303 556.622 307.089 614.3Z" stroke="url(#paint58_linear_12_97)" stroke-opacity="0.2" stroke-width="4"/>
<path opacity="0.869565" d="M293.086 616.696L291.454 815.06C291.016 868.33 347.219 903.09 394.685 878.91L557.758 795.82C605.223 771.63 610.137 705.73 566.783 674.774L405.342 559.498C358.566 526.097 293.559 559.22 293.086 616.696Z" stroke="url(#paint59_linear_12_97)" stroke-opacity="0.2" stroke-width="4"/>
<path opacity="0.884058" d="M279.096 619.521L266.668 810.91C263.207 864.2 317.609 902.09 366.397 880.37L529.372 807.81C578.16 786.09 586.403 720.31 544.483 687.22L393.936 568.391C349.036 532.95 282.803 562.439 279.096 619.521Z" stroke="url(#paint60_linear_12_97)" stroke-opacity="0.2" stroke-width="4"/>
<path opacity="0.898551" d="M265.095 622.766L242.625 806.62C236.13 859.77 288.559 900.71 338.545 881.52L500.735 819.26C550.721 800.07 562.29 734.57 521.901 699.42L382.181 577.821C339.245 540.455 271.999 566.269 265.095 622.766Z" stroke="url(#paint61_linear_12_97)" stroke-opacity="0.2" stroke-width="4"/>
<path opacity="0.913043" d="M251.058 626.42L219.333 802.24C209.8 855.07 260.088 898.96 311.145 882.37L471.881 830.15C522.938 813.56 537.824 748.49 499.058 711.35L370.047 587.759C329.158 548.586 261.113 570.695 251.058 626.42Z" stroke="url(#paint62_linear_12_97)" stroke-opacity="0.2" stroke-width="4"/>
<path opacity="0.927536" d="M236.967 630.471L196.795 797.82C184.23 850.17 232.212 896.91 284.21 882.98L442.848 840.47C494.846 826.54 513.029 762.07 475.975 723.02L357.509 598.172C318.74 557.316 250.114 575.704 236.967 630.471Z" stroke="url(#paint63_linear_12_97)" stroke-opacity="0.2" stroke-width="4"/>
<path opacity="0.942029" d="M222.799 634.906L175.01 793.42C159.427 845.1 204.944 894.59 257.749 883.36L413.67 850.22C466.475 839 487.931 775.28 452.673 734.4L344.542 609.029C307.96 566.615 238.967 581.279 222.799 634.906Z" stroke="url(#paint64_linear_12_97)" stroke-opacity="0.2" stroke-width="4"/>
<path opacity="0.956522" d="M208.537 639.711L153.975 789.08C135.397 839.93 178.295 892.03 231.771 883.56L384.381 859.39C437.858 850.92 462.556 788.12 429.172 745.49L331.124 620.295C296.788 576.451 227.644 587.403 208.537 639.711Z" stroke="url(#paint65_linear_12_97)" stroke-opacity="0.2" stroke-width="4"/>
<path opacity="0.971014" d="M194.162 644.87L133.684 784.85C112.145 834.7 152.273 889.3 206.283 883.62L355.019 867.99C409.029 862.31 436.93 800.57 405.496 756.28L317.237 631.934C285.197 586.793 216.117 594.054 194.162 644.87Z" stroke="url(#paint66_linear_12_97)" stroke-opacity="0.2" stroke-width="4"/>
<path opacity="0.985507" d="M179.659 650.368L114.13 780.79C89.6707 829.47 126.884 886.42 181.287 883.57L325.619 876C380.023 873.15 411.079 812.62 381.666 766.77L302.863 643.912C273.162 597.607 204.357 601.213 179.659 650.368Z" stroke="url(#paint67_linear_12_97)" stroke-opacity="0.2" stroke-width="4"/>
<path d="M165.012 656.19L95.2971 776.94C67.9692 824.27 102.129 883.44 156.785 883.44H296.215C350.871 883.44 385.031 824.27 357.703 776.94L287.988 656.19C260.66 608.856 192.34 608.856 165.012 656.19Z" stroke="url(#paint68_linear_12_97)" stroke-opacity="0.2" stroke-width="4"/>
</g>
<defs>
<linearGradient id="paint0_linear_12_97" x1="1884.92" y1="881.71" x2="1406.8" y2="-192.148" gradientUnits="userSpaceOnUse">
<stop stop-color="#F12711"/>
<stop offset="1" stop-color="#00B0FF" stop-opacity="0.1"/>
</linearGradient>
<linearGradient id="paint1_linear_12_97" x1="1834.72" y1="894.4" x2="1417.18" y2="-193.331" gradientUnits="userSpaceOnUse">
<stop stop-color="#F12711"/>
<stop offset="1" stop-color="#00B0FF" stop-opacity="0.1"/>
</linearGradient>
<linearGradient id="paint2_linear_12_97" x1="1784.47" y1="905.45" x2="1427.63" y2="-192.768" gradientUnits="userSpaceOnUse">
<stop stop-color="#F12711"/>
<stop offset="1" stop-color="#00B0FF" stop-opacity="0.1"/>
</linearGradient>
<linearGradient id="paint3_linear_12_97" x1="1734.24" y1="914.9" x2="1438.06" y2="-190.471" gradientUnits="userSpaceOnUse">
<stop stop-color="#F12711"/>
<stop offset="1" stop-color="#00B0FF" stop-opacity="0.1"/>
</linearGradient>
<linearGradient id="paint4_linear_12_97" x1="1684.12" y1="922.75" x2="1448.35" y2="-186.46" gradientUnits="userSpaceOnUse">
<stop stop-color="#F12711"/>
<stop offset="1" stop-color="#00B0FF" stop-opacity="0.1"/>
</linearGradient>
<linearGradient id="paint5_linear_12_97" x1="1634.21" y1="929.02" x2="1458.44" y2="-180.756" gradientUnits="userSpaceOnUse">
<stop stop-color="#F12711"/>
<stop offset="1" stop-color="#00B0FF" stop-opacity="0.1"/>
</linearGradient>
<linearGradient id="paint6_linear_12_97" x1="1584.58" y1="933.75" x2="1468.21" y2="-173.388" gradientUnits="userSpaceOnUse">
<stop stop-color="#F12711"/>
<stop offset="1" stop-color="#00B0FF" stop-opacity="0.1"/>
</linearGradient>
<linearGradient id="paint7_linear_12_97" x1="1535.32" y1="936.96" x2="1477.6" y2="-164.39" gradientUnits="userSpaceOnUse">
<stop stop-color="#F12711"/>
<stop offset="1" stop-color="#00B0FF" stop-opacity="0.1"/>
</linearGradient>
<linearGradient id="paint8_linear_12_97" x1="1486.5" y1="938.69" x2="1486.5" y2="-153.798" gradientUnits="userSpaceOnUse">
<stop stop-color="#F12711"/>
<stop offset="1" stop-color="#00B0FF" stop-opacity="0.1"/>
</linearGradient>
<linearGradient id="paint9_linear_12_97" x1="1438.21" y1="938.98" x2="1494.84" y2="-141.654" gradientUnits="userSpaceOnUse">
<stop stop-color="#F12711"/>
<stop offset="1" stop-color="#00B0FF" stop-opacity="0.1"/>
</linearGradient>
<linearGradient id="paint10_linear_12_97" x1="1390.51" y1="937.86" x2="1502.54" y2="-128.006" gradientUnits="userSpaceOnUse">
<stop stop-color="#F12711"/>
<stop offset="1" stop-color="#00B0FF" stop-opacity="0.1"/>
</linearGradient>
<linearGradient id="paint11_linear_12_97" x1="1343.48" y1="935.39" x2="1509.52" y2="-112.903" gradientUnits="userSpaceOnUse">
<stop stop-color="#F12711"/>
<stop offset="1" stop-color="#00B0FF" stop-opacity="0.1"/>
</linearGradient>
<linearGradient id="paint12_linear_12_97" x1="1297.19" y1="931.62" x2="1515.71" y2="-96.3989" gradientUnits="userSpaceOnUse">
<stop stop-color="#F12711"/>
<stop offset="1" stop-color="#00B0FF" stop-opacity="0.1"/>
</linearGradient>
<linearGradient id="paint13_linear_12_97" x1="1251.7" y1="926.6" x2="1521.03" y2="-78.553" gradientUnits="userSpaceOnUse">
<stop stop-color="#F12711"/>
<stop offset="1" stop-color="#00B0FF" stop-opacity="0.1"/>
</linearGradient>
<linearGradient id="paint14_linear_12_97" x1="1207.07" y1="920.39" x2="1525.43" y2="-59.4251" gradientUnits="userSpaceOnUse">
<stop stop-color="#F12711"/>
<stop offset="1" stop-color="#00B0FF" stop-opacity="0.1"/>
</linearGradient>
<linearGradient id="paint15_linear_12_97" x1="1163.36" y1="913.04" x2="1528.85" y2="-39.0789" gradientUnits="userSpaceOnUse">
<stop stop-color="#F12711"/>
<stop offset="1" stop-color="#00B0FF" stop-opacity="0.1"/>
</linearGradient>
<linearGradient id="paint16_linear_12_97" x1="1120.62" y1="904.63" x2="1531.22" y2="-17.5831" gradientUnits="userSpaceOnUse">
<stop stop-color="#F12711"/>
<stop offset="1" stop-color="#00B0FF" stop-opacity="0.1"/>
</linearGradient>
<linearGradient id="paint17_linear_12_97" x1="1078.9" y1="895.21" x2="1532.49" y2="4.99413" gradientUnits="userSpaceOnUse">
<stop stop-color="#F12711"/>
<stop offset="1" stop-color="#00B0FF" stop-opacity="0.1"/>
</linearGradient>
<linearGradient id="paint18_linear_12_97" x1="1038.25" y1="884.85" x2="1532.62" y2="28.579" gradientUnits="userSpaceOnUse">
<stop stop-color="#F12711"/>
<stop offset="1" stop-color="#00B0FF" stop-opacity="0.1"/>
</linearGradient>
<linearGradient id="paint19_linear_12_97" x1="998.702" y1="873.62" x2="1531.56" y2="53.099" gradientUnits="userSpaceOnUse">
<stop stop-color="#F12711"/>
<stop offset="1" stop-color="#00B0FF" stop-opacity="0.1"/>
</linearGradient>
<linearGradient id="paint20_linear_12_97" x1="960.299" y1="861.6" x2="1529.27" y2="78.4779" gradientUnits="userSpaceOnUse">
<stop stop-color="#F12711"/>
<stop offset="1" stop-color="#00B0FF" stop-opacity="0.1"/>
</linearGradient>
<linearGradient id="paint21_linear_12_97" x1="923.068" y1="848.84" x2="1525.71" y2="104.638" gradientUnits="userSpaceOnUse">
<stop stop-color="#F12711"/>
<stop offset="1" stop-color="#00B0FF" stop-opacity="0.1"/>
</linearGradient>
<linearGradient id="paint22_linear_12_97" x1="887.042" y1="835.44" x2="1520.87" y2="131.501" gradientUnits="userSpaceOnUse">
<stop stop-color="#F12711"/>
<stop offset="1" stop-color="#00B0FF" stop-opacity="0.1"/>
</linearGradient>
<linearGradient id="paint23_linear_12_97" x1="852.242" y1="821.45" x2="1514.7" y2="158.987" gradientUnits="userSpaceOnUse">
<stop stop-color="#F12711"/>
<stop offset="1" stop-color="#00B0FF" stop-opacity="0.1"/>
</linearGradient>
<linearGradient id="paint24_linear_12_97" x1="818.686" y1="806.96" x2="1507.2" y2="187.015" gradientUnits="userSpaceOnUse">
<stop stop-color="#F12711"/>
<stop offset="1" stop-color="#00B0FF" stop-opacity="0.1"/>
</linearGradient>
<linearGradient id="paint25_linear_12_97" x1="786.39" y1="792.03" x2="1498.34" y2="215.506" gradientUnits="userSpaceOnUse">
<stop stop-color="#F12711"/>
<stop offset="1" stop-color="#00B0FF" stop-opacity="0.1"/>
</linearGradient>
<linearGradient id="paint26_linear_12_97" x1="755.364" y1="776.76" x2="1488.12" y2="244.379" gradientUnits="userSpaceOnUse">
<stop stop-color="#F12711"/>
<stop offset="1" stop-color="#00B0FF" stop-opacity="0.1"/>
</linearGradient>
<linearGradient id="paint27_linear_12_97" x1="725.614" y1="761.2" x2="1476.53" y2="273.552" gradientUnits="userSpaceOnUse">
<stop stop-color="#F12711"/>
<stop offset="1" stop-color="#00B0FF" stop-opacity="0.1"/>
</linearGradient>
<linearGradient id="paint28_linear_12_97" x1="697.14" y1="745.44" x2="1463.56" y2="302.946" gradientUnits="userSpaceOnUse">
<stop stop-color="#F12711"/>
<stop offset="1" stop-color="#00B0FF" stop-opacity="0.1"/>
</linearGradient>
<linearGradient id="paint29_linear_12_97" x1="669.941" y1="729.55" x2="1449.23" y2="332.481" gradientUnits="userSpaceOnUse">
<stop stop-color="#F12711"/>
<stop offset="1" stop-color="#00B0FF" stop-opacity="0.1"/>
</linearGradient>
<linearGradient id="paint30_linear_12_97" x1="644.009" y1="713.6" x2="1433.53" y2="362.079" gradientUnits="userSpaceOnUse">
<stop stop-color="#F12711"/>
<stop offset="1" stop-color="#00B0FF" stop-opacity="0.1"/>
</linearGradient>
<linearGradient id="paint31_linear_12_97" x1="619.332" y1="697.66" x2="1416.48" y2="391.661" gradientUnits="userSpaceOnUse">
<stop stop-color="#F12711"/>
<stop offset="1" stop-color="#00B0FF" stop-opacity="0.1"/>
</linearGradient>
<linearGradient id="paint32_linear_12_97" x1="595.895" y1="681.805" x2="1398.1" y2="421.153" gradientUnits="userSpaceOnUse">
<stop stop-color="#F12711"/>
<stop offset="1" stop-color="#00B0FF" stop-opacity="0.1"/>
</linearGradient>
<linearGradient id="paint33_linear_12_97" x1="573.681" y1="666.106" x2="1378.41" y2="450.48" gradientUnits="userSpaceOnUse">
<stop stop-color="#F12711"/>
<stop offset="1" stop-color="#00B0FF" stop-opacity="0.1"/>
</linearGradient>
<linearGradient id="paint34_linear_12_97" x1="552.665" y1="650.627" x2="1357.42" y2="479.57" gradientUnits="userSpaceOnUse">
<stop stop-color="#F12711"/>
<stop offset="1" stop-color="#00B0FF" stop-opacity="0.1"/>
</linearGradient>
<linearGradient id="paint35_linear_12_97" x1="532.82" y1="635.434" x2="1335.18" y2="508.352" gradientUnits="userSpaceOnUse">
<stop stop-color="#F12711"/>
<stop offset="1" stop-color="#00B0FF" stop-opacity="0.1"/>
</linearGradient>
<linearGradient id="paint36_linear_12_97" x1="514.117" y1="620.59" x2="1311.71" y2="536.76" gradientUnits="userSpaceOnUse">
<stop stop-color="#F12711"/>
<stop offset="1" stop-color="#00B0FF" stop-opacity="0.1"/>
</linearGradient>
<linearGradient id="paint37_linear_12_97" x1="496.523" y1="606.156" x2="1287.05" y2="564.726" gradientUnits="userSpaceOnUse">
<stop stop-color="#F12711"/>
<stop offset="1" stop-color="#00B0FF" stop-opacity="0.1"/>
</linearGradient>
<linearGradient id="paint38_linear_12_97" x1="480" y1="592.19" x2="1261.24" y2="592.19" gradientUnits="userSpaceOnUse">
<stop stop-color="#F12711"/>
<stop offset="1" stop-color="#00B0FF" stop-opacity="0.1"/>
</linearGradient>
<linearGradient id="paint39_linear_12_97" x1="464.509" y1="578.747" x2="1234.32" y2="619.091" gradientUnits="userSpaceOnUse">
<stop stop-color="#F12711"/>
<stop offset="1" stop-color="#00B0FF" stop-opacity="0.1"/>
</linearGradient>
<linearGradient id="paint40_linear_12_97" x1="450.008" y1="565.88" x2="1206.33" y2="645.373" gradientUnits="userSpaceOnUse">
<stop stop-color="#F12711"/>
<stop offset="1" stop-color="#00B0FF" stop-opacity="0.1"/>
</linearGradient>
<linearGradient id="paint41_linear_12_97" x1="436.451" y1="553.639" x2="1177.33" y2="670.982" gradientUnits="userSpaceOnUse">
<stop stop-color="#F12711"/>
<stop offset="1" stop-color="#00B0FF" stop-opacity="0.1"/>
</linearGradient>
<linearGradient id="paint42_linear_12_97" x1="423.79" y1="542.069" x2="1147.36" y2="695.87" gradientUnits="userSpaceOnUse">
<stop stop-color="#F12711"/>
<stop offset="1" stop-color="#00B0FF" stop-opacity="0.1"/>
</linearGradient>
<linearGradient id="paint43_linear_12_97" x1="411.977" y1="531.215" x2="1116.49" y2="719.99" gradientUnits="userSpaceOnUse">
<stop stop-color="#F12711"/>
<stop offset="1" stop-color="#00B0FF" stop-opacity="0.1"/>
</linearGradient>
<linearGradient id="paint44_linear_12_97" x1="400.959" y1="521.115" x2="1084.76" y2="743.29" gradientUnits="userSpaceOnUse">
<stop stop-color="#F12711"/>
<stop offset="1" stop-color="#00B0FF" stop-opacity="0.1"/>
</linearGradient>
<linearGradient id="paint45_linear_12_97" x1="390.682" y1="511.807" x2="1052.23" y2="765.75" gradientUnits="userSpaceOnUse">
<stop stop-color="#F12711"/>
<stop offset="1" stop-color="#00B0FF" stop-opacity="0.1"/>
</linearGradient>
<linearGradient id="paint46_linear_12_97" x1="381.092" y1="503.323" x2="1018.96" y2="787.32" gradientUnits="userSpaceOnUse">
<stop stop-color="#F12711"/>
<stop offset="1" stop-color="#00B0FF" stop-opacity="0.1"/>
</linearGradient>
<linearGradient id="paint47_linear_12_97" x1="372.131" y1="495.692" x2="985.021" y2="807.97" gradientUnits="userSpaceOnUse">
<stop stop-color="#F12711"/>
<stop offset="1" stop-color="#00B0FF" stop-opacity="0.1"/>
</linearGradient>
<linearGradient id="paint48_linear_12_97" x1="363.743" y1="488.94" x2="950.464" y2="827.68" gradientUnits="userSpaceOnUse">
<stop stop-color="#F12711"/>
<stop offset="1" stop-color="#00B0FF" stop-opacity="0.1"/>
</linearGradient>
<linearGradient id="paint49_linear_12_97" x1="355.867" y1="483.088" x2="915.355" y2="846.42" gradientUnits="userSpaceOnUse">
<stop stop-color="#F12711"/>
<stop offset="1" stop-color="#00B0FF" stop-opacity="0.1"/>
</linearGradient>
<linearGradient id="paint50_linear_12_97" x1="348.446" y1="478.156" x2="879.758" y2="864.18" gradientUnits="userSpaceOnUse">
<stop stop-color="#F12711"/>
<stop offset="1" stop-color="#00B0FF" stop-opacity="0.1"/>
</linearGradient>
<linearGradient id="paint51_linear_12_97" x1="341.419" y1="474.156" x2="843.737" y2="880.93" gradientUnits="userSpaceOnUse">
<stop stop-color="#F12711"/>
<stop offset="1" stop-color="#00B0FF" stop-opacity="0.1"/>
</linearGradient>
<linearGradient id="paint52_linear_12_97" x1="334.726" y1="471.101" x2="807.357" y2="896.66" gradientUnits="userSpaceOnUse">
<stop stop-color="#F12711"/>
<stop offset="1" stop-color="#00B0FF" stop-opacity="0.1"/>
</linearGradient>
<linearGradient id="paint53_linear_12_97" x1="328.307" y1="468.997" x2="770.682" y2="911.37" gradientUnits="userSpaceOnUse">
<stop stop-color="#F12711"/>
<stop offset="1" stop-color="#00B0FF" stop-opacity="0.1"/>
</linearGradient>
<linearGradient id="paint54_linear_12_97" x1="322.103" y1="467.847" x2="733.777" y2="925.06" gradientUnits="userSpaceOnUse">
<stop stop-color="#F12711"/>
<stop offset="1" stop-color="#00B0FF" stop-opacity="0.1"/>
</linearGradient>
<linearGradient id="paint55_linear_12_97" x1="316.053" y1="467.652" x2="696.705" y2="937.72" gradientUnits="userSpaceOnUse">
<stop stop-color="#F12711"/>
<stop offset="1" stop-color="#00B0FF" stop-opacity="0.1"/>
</linearGradient>
<linearGradient id="paint56_linear_12_97" x1="310.1" y1="468.406" x2="659.531" y2="949.36" gradientUnits="userSpaceOnUse">
<stop stop-color="#F12711"/>
<stop offset="1" stop-color="#00B0FF" stop-opacity="0.1"/>
</linearGradient>
<linearGradient id="paint57_linear_12_97" x1="304.184" y1="470.104" x2="622.315" y2="959.98" gradientUnits="userSpaceOnUse">
<stop stop-color="#F12711"/>
<stop offset="1" stop-color="#00B0FF" stop-opacity="0.1"/>
</linearGradient>
<linearGradient id="paint58_linear_12_97" x1="298.25" y1="472.734" x2="585.119" y2="969.6" gradientUnits="userSpaceOnUse">
<stop stop-color="#F12711"/>
<stop offset="1" stop-color="#00B0FF" stop-opacity="0.1"/>
</linearGradient>
<linearGradient id="paint59_linear_12_97" x1="292.242" y1="476.281" x2="548.003" y2="978.24" gradientUnits="userSpaceOnUse">
<stop stop-color="#F12711"/>
<stop offset="1" stop-color="#00B0FF" stop-opacity="0.1"/>
</linearGradient>
<linearGradient id="paint60_linear_12_97" x1="286.105" y1="480.73" x2="511.025" y2="985.91" gradientUnits="userSpaceOnUse">
<stop stop-color="#F12711"/>
<stop offset="1" stop-color="#00B0FF" stop-opacity="0.1"/>
</linearGradient>
<linearGradient id="paint61_linear_12_97" x1="279.787" y1="486.059" x2="474.242" y2="992.63" gradientUnits="userSpaceOnUse">
<stop stop-color="#F12711"/>
<stop offset="1" stop-color="#00B0FF" stop-opacity="0.1"/>
</linearGradient>
<linearGradient id="paint62_linear_12_97" x1="273.237" y1="492.244" x2="437.707" y2="998.43" gradientUnits="userSpaceOnUse">
<stop stop-color="#F12711"/>
<stop offset="1" stop-color="#00B0FF" stop-opacity="0.1"/>
</linearGradient>
<linearGradient id="paint63_linear_12_97" x1="266.407" y1="499.259" x2="401.475" y2="1003.34" gradientUnits="userSpaceOnUse">
<stop stop-color="#F12711"/>
<stop offset="1" stop-color="#00B0FF" stop-opacity="0.1"/>
</linearGradient>
<linearGradient id="paint64_linear_12_97" x1="259.25" y1="507.076" x2="365.594" y2="1007.39" gradientUnits="userSpaceOnUse">
<stop stop-color="#F12711"/>
<stop offset="1" stop-color="#00B0FF" stop-opacity="0.1"/>
</linearGradient>
<linearGradient id="paint65_linear_12_97" x1="251.721" y1="515.663" x2="330.112" y2="1010.61" gradientUnits="userSpaceOnUse">
<stop stop-color="#F12711"/>
<stop offset="1" stop-color="#00B0FF" stop-opacity="0.1"/>
</linearGradient>
<linearGradient id="paint66_linear_12_97" x1="243.779" y1="524.985" x2="295.075" y2="1013.03" gradientUnits="userSpaceOnUse">
<stop stop-color="#F12711"/>
<stop offset="1" stop-color="#00B0FF" stop-opacity="0.1"/>
</linearGradient>
<linearGradient id="paint67_linear_12_97" x1="235.384" y1="535.007" x2="260.525" y2="1014.71" gradientUnits="userSpaceOnUse">
<stop stop-color="#F12711"/>
<stop offset="1" stop-color="#00B0FF" stop-opacity="0.1"/>
</linearGradient>
<linearGradient id="paint68_linear_12_97" x1="226.5" y1="545.69" x2="226.5" y2="1015.68" gradientUnits="userSpaceOnUse">
<stop stop-color="#F12711"/>
<stop offset="1" stop-color="#00B0FF" stop-opacity="0.1"/>
</linearGradient>
<clipPath id="clip0_12_97">
<rect width="1440" height="763" fill="white"/>
</clipPath>
</defs>
</svg>
